<svg xmlns="http://www.w3.org/2000/svg" width="207" height="71" viewBox="0 0 207 71" fill="none"><path d="M26.068 43.2067C26.068 48.2474 22.7555 51.776 17.9308 51.776C11.8818 51.776 8.85737 47.0233 8.85737 35.5015C8.85737 24.2677 12.3859 20.5952 17.4267 20.5952C21.6753 20.5952 26.068 23.8357 26.068 31.8289V43.2067ZM37.3018 51.4879C34.3493 51.2719 33.6292 50.6238 33.6292 47.0953V0L22.3955 2.30436V3.38452C25.3479 4.17665 26.068 5.04078 26.068 7.56117V21.8914C23.7637 20.4512 20.7392 19.515 17.2827 19.515C7.48916 19.515 0 24.9158 0 36.3656C0 47.0233 6.33698 54.0803 15.2664 54.0803C18.7229 54.0803 23.7637 52.4961 26.068 48.5355V52.7121C26.068 52.7121 26.068 54.2964 28.0843 54.0083L37.3018 52.5681V51.4879Z" fill="#0D0EFF"></path><path d="M65.2713 36.7977C65.2713 49.8317 62.8229 53.0002 57.4221 53.0002C52.0933 53.0002 49.5729 49.8317 49.5729 36.7977C49.5729 23.7637 52.0933 20.5952 57.4221 20.5952C62.8229 20.5952 65.2713 23.7637 65.2713 36.7977ZM74.3447 36.7977C74.3447 27.2922 68.4398 19.515 57.4221 19.515C46.4764 19.515 40.5715 27.2922 40.5715 36.7977C40.5715 46.2311 46.4764 54.0803 57.4221 54.0803C68.4398 54.0803 74.3447 46.2311 74.3447 36.7977Z" fill="#0D0EFF"></path><path d="M108.323 44.2148C106.811 46.8072 101.77 49.5436 97.3056 48.8955C92.2648 48.1034 87.5121 44.4309 87.5121 35.7175C87.5121 22.8275 94.9292 20.5952 97.6656 20.5952C101.482 20.5952 103.283 22.1794 102.634 22.3955C101.698 22.7555 100.906 23.5476 100.546 24.6278C99.754 26.6441 100.69 29.0205 102.778 29.8126C104.867 30.6047 107.243 29.4525 108.035 27.4362C108.683 26.068 108.179 24.3398 107.315 23.2596C106.379 22.1794 103.787 19.515 97.6656 19.515C85.9998 19.515 79.5908 28.2284 79.5908 36.7257C79.5908 46.2311 86.6479 54.0803 95.3613 54.0803C104.291 54.0803 108.251 48.3195 109.187 44.7189L108.323 44.2148Z" fill="#0D0EFF"></path><path d="M148.665 51.3439C145.64 50.9839 144.992 50.5518 144.992 47.0953V19.515L133.974 20.8832V21.9634C137.575 22.2514 137.359 22.9715 137.359 27.3642V44.5749C135.991 47.5273 133.254 49.6877 130.518 49.6877C126.341 49.6877 123.749 47.6714 123.749 42.9186V19.515L112.155 20.8832V21.9634C116.332 22.3955 116.188 22.8275 116.188 27.3642V43.1347C116.188 51.92 120.436 54.0803 125.837 54.0803C130.518 54.0803 135.847 50.5518 137.359 46.5912V52.7841C137.359 52.7841 137.359 54.2964 139.231 54.0083L148.665 52.3521V51.3439Z" fill="#0D0EFF"></path><path d="M165.225 52.3521C162.633 51.704 162.273 49.6877 162.273 45.7271V0L151.039 2.30436V3.38452C153.991 4.17665 154.639 5.25681 154.639 7.7772V45.7271C154.639 49.3996 154.495 51.56 151.759 52.3521V53.4322H165.225V52.3521Z" fill="#0D0EFF"></path><path d="M187.607 20.1631V21.1713C195.961 21.0993 191.352 32.333 191.352 32.333L187.031 43.7108L178.75 25.996C178.75 25.996 176.59 21.1713 180.766 21.1713V20.1631H164.852V21.1713C165.932 21.2433 168.381 21.3873 169.677 24.4118C169.677 24.4118 176.662 39.2461 183.215 53.8643L180.19 62.1456C179.11 65.026 177.454 65.7461 177.166 64.81C176.878 63.7298 176.158 62.7217 175.006 62.2176C172.773 61.2094 170.181 62.2176 169.173 64.45C168.237 66.6823 169.173 69.2747 171.405 70.2828C172.917 71.003 175.15 70.5709 176.302 69.6348C177.526 68.6986 179.542 66.8263 181.271 62.2896L192.36 32.549C196.753 21.6033 199.633 21.1713 201.65 21.1713V20.1631H187.607Z" fill="#0D0EFF"></path><circle cx="199.918" cy="48.4966" r="6.34598" fill="#0D0EFF"></circle></svg>